<svg version="1.2" xmlns="http://www.w3.org/2000/svg" viewBox="0 0 512 512" width="512" height="512">
	<defs>
		<clipPath clipPathUnits="userSpaceOnUse" id="cp1">
			<path d="m115.37 495.67c16.02-21.81 23.76-41.51 26.97-62.59 2.24-14.56 2.39-30.08 1.65-47.51l8.74 0.45v-0.05c5.69 0.41 11.52 0.59 17.23 0.88l0.52 0.02c0.7 18 0.42 34.34-2.01 50.23-3.86 25.26-12.99 48.67-31.8 74.3zm-46.72-123.24l59.17 59.17-4.99 23.75-76.36-76.36c-10.47 4.08-20.64 9.61-30.45 17.04l-16.02-21c49.16-37.28 102.03-34.55 154.98-31.82 5.98 0.31 11.95 0.62 16.76 0.82 20.96 0.9 41.77 1.07 61.74-2.25l-52.76-52.76 4.98-23.76 70.84 70.84c14.07-4.74 27.81-11.95 41.09-22.77l-99.29-99.28c-17.92 19.51-26.27 40.86-29.71 63.56-2.4 15.79-2.48 32.49-1.73 49.77l-10.17-0.52q-0.86-0.09-1.75-0.09-7.29-0.38-14.57-0.72c-0.72-17.86-0.51-35.34 2.09-52.46 4.28-28.24 14.96-54.89 38.26-79.38 24.86-26.15 51.47-39.83 79.01-46.69 21.89-5.45 43.94-6.48 66.03-6.06q0.47 7.82 1.06 16.1 0.37 5.22 0.72 10.38c-16.81-0.4-33.42 0.02-49.49 2.73l53.9 53.9-4.99 23.75-71.93-71.93c-14.38 4.88-28.44 12.36-42.01 23.65l99.44 99.43c18.63-19.81 27.24-41.55 30.76-64.68 3.7-24.36 1.89-50.91-0.04-78.41-2.19-31.05-3.55-56.61 0.2-81.09 3.86-25.25 12.98-48.67 31.8-74.3l21.29 15.74c-16.01 21.82-23.75 41.52-26.98 62.59-3.33 21.84-2.03 45.86 0.02 75.16 2.05 29.07 3.96 57.14-0.17 84.34-4.29 28.24-14.96 54.87-38.26 79.38-24.86 26.14-51.47 39.83-79.01 46.68-26.98 6.72-54.22 6.74-81.47 5.57-6.45-0.28-11.75-0.55-17.04-0.83-28.82-1.48-57.61-2.96-84.95 2.81zm372.27-231.99l-57.13-57.14 4.99-23.74 74.63 74.62c11.16-4.15 22.02-9.91 32.45-17.82l16.03 21.01c-39.84 30.19-82.07 34.15-124.83 33.1q-0.54-8.54-1.15-17.18-0.34-4.76-0.64-9.34c18.89 0.51 37.58 0.04 55.65-3.51z"/>
		</clipPath>
	</defs>
	<style>
		.s0 { fill: #000000 } 
	</style>
	<g id="Layer_x0020_1">
		<g clip-path="url(#cp1)">
			<path class="s0" d="m115.37 495.67c16.02-21.81 23.76-41.51 26.97-62.59 2.24-14.56 2.39-30.08 1.65-47.51l8.74 0.45v-0.05c5.69 0.41 11.52 0.59 17.23 0.88l0.52 0.02c0.7 18 0.42 34.34-2.01 50.23-3.86 25.26-12.99 48.67-31.8 74.3zm-46.72-123.24l59.17 59.17-4.99 23.75-76.36-76.36c-10.47 4.08-20.64 9.61-30.45 17.04l-16.02-21c49.16-37.28 102.03-34.55 154.98-31.82 5.98 0.31 11.95 0.62 16.76 0.82 20.96 0.9 41.77 1.07 61.74-2.25l-52.76-52.76 4.98-23.76 70.84 70.84c14.07-4.74 27.81-11.95 41.09-22.77l-99.29-99.28c-17.92 19.51-26.27 40.86-29.71 63.56-2.4 15.79-2.48 32.49-1.73 49.77l-10.17-0.52q-0.86-0.09-1.75-0.09-7.29-0.38-14.57-0.72c-0.72-17.86-0.51-35.34 2.09-52.46 4.28-28.24 14.96-54.89 38.26-79.38 24.86-26.15 51.47-39.83 79.01-46.69 21.89-5.45 43.94-6.48 66.03-6.06q0.47 7.82 1.06 16.1 0.37 5.22 0.72 10.38c-16.81-0.4-33.42 0.02-49.49 2.73l53.9 53.9-4.99 23.75-71.93-71.93c-14.38 4.88-28.44 12.36-42.01 23.65l99.44 99.43c18.63-19.81 27.24-41.55 30.76-64.68 3.7-24.36 1.89-50.91-0.04-78.41-2.19-31.05-3.55-56.61 0.2-81.09 3.86-25.25 12.98-48.67 31.8-74.3l21.29 15.74c-16.01 21.82-23.75 41.52-26.98 62.59-3.33 21.84-2.03 45.86 0.02 75.16 2.05 29.07 3.96 57.14-0.17 84.34-4.29 28.24-14.96 54.87-38.26 79.38-24.86 26.14-51.47 39.83-79.01 46.68-26.98 6.72-54.22 6.74-81.47 5.57-6.45-0.28-11.75-0.55-17.04-0.83-28.82-1.48-57.61-2.96-84.95 2.81zm372.27-231.99l-57.13-57.14 4.99-23.74 74.63 74.62c11.16-4.15 22.02-9.91 32.45-17.82l16.03 21.01c-39.84 30.19-82.07 34.15-124.83 33.1q-0.54-8.54-1.15-17.18-0.34-4.76-0.64-9.34c18.89 0.51 37.58 0.04 55.65-3.51z"/>
			<rect width="512" height="512" id="Color Fill 1" style="fill: #4dc99a"/>
		</g>
	</g>
</svg>